<svg width="16" height="17" viewBox="0 0 16 17" fill="none" xmlns="http://www.w3.org/2000/svg">
<mask id="path-1-inside-1_185_652" fill="white">
<path fill-rule="evenodd" clip-rule="evenodd" d="M0.052533 9.5408L10.3533 1.14324C9.60928 0.914578 8.81901 0.791504 8 0.791504C3.58172 0.791504 0 4.37323 0 8.7915C0 12.2475 2.19149 15.1917 5.26065 16.3102L5.36425 12.2089L1.92113 9.71396L15.9037 7.54672C15.5089 5.01929 13.9307 2.88393 11.7538 1.72509L11.6763 4.79076L15.0281 7.21929L0.052533 9.5408ZM15.9906 8.40058L6.0058 16.541C6.64329 16.7045 7.31149 16.7915 8 16.7915C12.4183 16.7915 16 13.2098 16 8.7915C16 8.66044 15.9968 8.53011 15.9906 8.40058Z"/>
</mask>
<path fill-rule="evenodd" clip-rule="evenodd" d="M0.052533 9.5408L10.3533 1.14324C9.60928 0.914578 8.81901 0.791504 8 0.791504C3.58172 0.791504 0 4.37323 0 8.7915C0 12.2475 2.19149 15.1917 5.26065 16.3102L5.36425 12.2089L1.92113 9.71396L15.9037 7.54672C15.5089 5.01929 13.9307 2.88393 11.7538 1.72509L11.6763 4.79076L15.0281 7.21929L0.052533 9.5408ZM15.9906 8.40058L6.0058 16.541C6.64329 16.7045 7.31149 16.7915 8 16.7915C12.4183 16.7915 16 13.2098 16 8.7915C16 8.66044 15.9968 8.53011 15.9906 8.40058Z" fill="white"/>
<path d="M10.3533 1.14324L12.2489 3.46847L16.5971 -0.0763444L11.2346 -1.72439L10.3533 1.14324ZM0.052533 9.5408L-1.84307 7.21557L-10.4083 14.1983L0.512104 12.5054L0.052533 9.5408ZM5.26065 16.3102L4.23344 19.1289L8.15431 20.5577L8.25969 16.386L5.26065 16.3102ZM5.36425 12.2089L8.36329 12.2846L8.40316 10.7061L7.12453 9.77959L5.36425 12.2089ZM1.92113 9.71396L1.46163 6.74936L-5.74211 7.86591L0.160846 12.1432L1.92113 9.71396ZM15.9037 7.54672L16.3632 10.5113L19.3314 10.0513L18.8678 7.08364L15.9037 7.54672ZM11.7538 1.72509L13.1635 -0.923078L8.87756 -3.2046L8.75478 1.64922L11.7538 1.72509ZM11.6763 4.79076L8.67723 4.71489L8.63729 6.29356L9.91609 7.22011L11.6763 4.79076ZM15.0281 7.21929L15.4876 10.1839L22.6915 9.06713L16.7882 4.78993L15.0281 7.21929ZM15.9906 8.40058L18.9871 8.2564L18.7015 2.3198L14.095 6.0754L15.9906 8.40058ZM6.0058 16.541L4.11014 14.2158L-0.494937 17.9702L5.26021 19.4468L6.0058 16.541ZM8.45771 -1.18199L-1.84307 7.21557L1.94814 11.866L12.2489 3.46847L8.45771 -1.18199ZM8 3.7915C8.51696 3.7915 9.01032 3.86898 9.47201 4.01087L11.2346 -1.72439C10.2082 -2.03982 9.12106 -2.2085 8 -2.2085V3.7915ZM3 8.7915C3 6.03008 5.23858 3.7915 8 3.7915V-2.2085C1.92487 -2.2085 -3 2.71637 -3 8.7915H3ZM6.28785 13.4915C4.36524 12.7909 3 10.9468 3 8.7915H-3C-3 13.5483 0.0177476 17.5925 4.23344 19.1289L6.28785 13.4915ZM8.25969 16.386L8.36329 12.2846L2.3652 12.1331L2.2616 16.2344L8.25969 16.386ZM7.12453 9.77959L3.68141 7.28468L0.160846 12.1432L3.60396 14.6382L7.12453 9.77959ZM2.38063 12.6786L16.3632 10.5113L15.4442 4.58212L1.46163 6.74936L2.38063 12.6786ZM10.3441 4.37325C11.7105 5.10062 12.6943 6.43941 12.9397 8.00979L18.8678 7.08364C18.3234 3.59916 16.151 0.667231 13.1635 -0.923078L10.3441 4.37325ZM14.6753 4.86662L14.7529 1.80095L8.75478 1.64922L8.67723 4.71489L14.6753 4.86662ZM16.7882 4.78993L13.4364 2.3614L9.91609 7.22011L13.2679 9.64864L16.7882 4.78993ZM0.512104 12.5054L15.4876 10.1839L14.5685 4.2547L-0.407038 6.57621L0.512104 12.5054ZM14.095 6.0754L4.11014 14.2158L7.90146 18.8661L17.8863 10.7258L14.095 6.0754ZM8 13.7915C7.56507 13.7915 7.14731 13.7367 6.75138 13.6351L5.26021 19.4468C6.13927 19.6724 7.0579 19.7915 8 19.7915V13.7915ZM13 8.7915C13 11.5529 10.7614 13.7915 8 13.7915V19.7915C14.0751 19.7915 19 14.8666 19 8.7915H13ZM12.9941 8.54477C12.998 8.62629 13 8.70854 13 8.7915H19C19 8.61233 18.9957 8.43393 18.9871 8.2564L12.9941 8.54477Z" fill="white" mask="url(#path-1-inside-1_185_652)"/>
</svg>
