<svg width="16" height="16" viewBox="0 0 16 16" fill="none" xmlns="http://www.w3.org/2000/svg">
<path d="M7.97765 12.1782L7.79786 12.5378L7.61807 12.8974H4.80135L4.44177 12.5378L4.80135 12.1782H7.97765Z" fill="#57C16E"/>
<path d="M7.8578 12.8975L8.03759 12.5379L8.21738 12.1783H11.0341L11.3937 12.5379L11.0341 12.8975H7.8578Z" fill="#C63257"/>
<path d="M4.86133 12.1782H10.9742" stroke="#D5D7E7" stroke-width="0.2" stroke-linecap="round"/>
<path d="M4.86133 12.8975H10.9742" stroke="#D5D7E7" stroke-width="0.2" stroke-linecap="round"/>
<path d="M10.6146 13.2573L11.3338 12.5382" stroke="#D5D7E7" stroke-width="0.2" stroke-linecap="round"/>
<path d="M10.6146 11.8188L11.3338 12.538" stroke="#D5D7E7" stroke-width="0.2" stroke-linecap="round"/>
<path d="M5.22095 13.2573L4.50178 12.5382" stroke="#D5D7E7" stroke-width="0.2" stroke-linecap="round"/>
<path d="M5.22095 11.8188L4.50178 12.538" stroke="#D5D7E7" stroke-width="0.2" stroke-linecap="round"/>
<circle cx="11.0941" cy="7.14413" r="1.40819" stroke="#D5D7E7" stroke-width="0.3"/>
<path d="M11.0941 5.9458V8.58273" stroke="#D5D7E7" stroke-width="0.2" stroke-linecap="round"/>
<path d="M9.77563 7.26416H12.4126" stroke="#D5D7E7" stroke-width="0.3" stroke-linecap="round"/>
<path d="M11.0941 6.66455L11.6934 7.26385L11.0941 7.86316L10.4948 7.26385L11.0941 6.66455Z" fill="#D5D7E7"/>
<path d="M11.0941 5.58594L11.6934 6.00545L11.0941 6.42496L10.4948 6.00545L11.0941 5.58594Z" fill="#D5D7E7"/>
<path d="M9.53589 7.26398L9.89547 6.66467L10.2551 7.26398L9.89547 7.86328L9.53589 7.26398Z" fill="#D5D7E7"/>
<path d="M11.9331 7.26398L12.2927 6.66467L12.6523 7.26398L12.2927 7.86328L11.9331 7.26398Z" fill="#D5D7E7"/>
<path d="M11.0941 8L11.6934 8.23972L11.0941 8.64611L10.4948 8.23972L11.0941 8Z" fill="#D5D7E7"/>
<path d="M8.79376 8.26192C8.82493 8.23595 8.8597 8.21464 8.89699 8.19866L8.96474 8.16962C9.13069 8.0985 9.32332 8.16906 9.40406 8.33055V8.33055C9.42773 8.3779 9.44006 8.43011 9.44006 8.48305V8.56463C9.44006 8.68944 9.40604 8.81188 9.34166 8.9188L9.25382 9.06469C9.17875 9.18938 9.08326 9.30057 8.97134 9.39362L8.36131 9.90081L8.0444 10.1825C7.90595 10.3056 7.84042 10.4911 7.87087 10.6738V10.6738C7.87819 10.7178 7.88187 10.7622 7.88187 10.8067V11.2015C7.88187 11.3408 7.71351 11.4105 7.61505 11.312V11.312C7.59322 11.2902 7.57359 11.2663 7.55646 11.2406L7.46236 11.0994L7.16271 10.5001V10.5001C7.09333 10.3267 7.15811 10.1284 7.31653 10.0294L7.3301 10.0209C7.45713 9.94153 7.56839 9.83934 7.65827 9.71949L7.88187 9.42137L8.18152 9.00185L8.35141 8.73004C8.43737 8.5925 8.54466 8.4695 8.66927 8.36567L8.79376 8.26192Z" fill="#D5D7E7"/>
<path d="M6.28664 9.38722C6.32481 9.37347 6.36477 9.36534 6.40528 9.36308L6.47887 9.35896C6.65914 9.34889 6.81602 9.48108 6.83666 9.66044V9.66044C6.84271 9.71303 6.83644 9.76631 6.81833 9.81606L6.79043 9.89272C6.74774 10.01 6.6739 10.1134 6.57683 10.1919L6.4444 10.2989C6.3312 10.3904 6.20344 10.4622 6.06645 10.5114L5.31974 10.7794L4.76079 11.001C4.68689 11.0304 4.61931 11.0736 4.56171 11.1284V11.1284C4.49806 11.1889 4.44328 11.2581 4.39902 11.334L4.08986 11.864C4.06781 11.9018 4.01596 11.9085 3.98502 11.8776V11.8776C3.94747 11.84 3.92638 11.7891 3.92638 11.736L3.92638 11.4038L3.98844 10.9326L4.03656 10.5483C4.05219 10.4235 4.16751 10.336 4.29191 10.3546V10.3546C4.40589 10.3716 4.52234 10.3591 4.63006 10.3181L4.85514 10.2326C4.97342 10.1876 5.08591 10.1287 5.19025 10.0571L5.45825 9.87313L5.71086 9.67581C5.83868 9.57596 5.98157 9.49708 6.13417 9.44213L6.28664 9.38722Z" fill="#D5D7E7"/>
<path d="M6.68853 8.40022C6.84447 8.52151 7.01201 8.6271 7.18871 8.71545L7.64218 8.94218V8.94218C7.44302 9.1015 7.26213 9.2824 7.10281 9.48155V9.48155L7.06704 9.44578C6.82449 9.20323 6.48484 9.08409 6.14392 9.12197V9.12197V9.12197C6.30023 8.88751 6.38364 8.61202 6.38364 8.33023V8.16309L6.68853 8.40022Z" fill="#D5D7E7"/>
<path d="M7.2896 6.95749C7.47804 6.92322 7.67251 6.95931 7.83612 7.0589L8.96054 7.74332L8.8482 7.81481C8.48758 8.0443 8.17883 8.34654 7.94172 8.70221V8.70221L7.09452 8.27861C6.94197 8.20233 6.8078 8.09386 6.70126 7.96069L6.66023 7.9094C6.63565 7.87867 6.61438 7.84544 6.59679 7.81025V7.81025C6.43023 7.47713 6.6301 7.0774 6.99652 7.01077L7.2896 6.95749Z" fill="#D5D7E7"/>
<path d="M6.63757 4.4339C6.86653 4.36346 7.10474 4.32764 7.34429 4.32764V4.32764C7.50254 4.32764 7.6604 4.34327 7.81558 4.3743L7.8819 4.38757L7.28259 5.16666V5.16666C7.08587 5.08797 6.87277 5.05904 6.66218 5.08244L6.58683 5.09081C6.49152 5.1014 6.39736 5.12059 6.30551 5.14815L5.84427 5.28652L5.54895 5.42076C5.52612 5.43114 5.50408 5.44319 5.48302 5.45682L5.08069 5.71715C5.04044 5.74319 4.98649 5.72847 4.96506 5.68559V5.68559C4.95276 5.661 4.95388 5.63182 4.96803 5.60825L5.08408 5.41482C5.11125 5.36954 5.14554 5.32893 5.18564 5.29456L5.41685 5.09638C5.50192 5.02347 5.59206 4.95668 5.68659 4.89653L5.87861 4.77433C6.09446 4.63697 6.32778 4.52923 6.57231 4.45399L6.63757 4.4339Z" fill="#D5D7E7"/>
<path d="M9.22282 4.98954C9.52676 4.86796 9.81872 4.71832 10.0949 4.54257L10.2454 4.4468C10.3037 4.40972 10.339 4.34544 10.339 4.27637V4.06055C10.339 4.03872 10.3363 4.01697 10.331 3.99578L10.3089 3.90742C10.2914 3.83762 10.3248 3.76506 10.3892 3.73289V3.73289C10.3956 3.72969 10.4026 3.72803 10.4098 3.72803H10.4199C10.5191 3.72803 10.6117 3.7776 10.6668 3.86014L10.679 3.87854C10.692 3.898 10.7029 3.91877 10.7116 3.94049L10.7614 4.06484C10.799 4.15906 10.8184 4.25961 10.8184 4.36109V4.36109C10.8184 4.53368 10.7624 4.70162 10.6589 4.8397L10.5667 4.96259C10.4951 5.058 10.4104 5.14275 10.315 5.2143L10.0678 5.3997C9.84981 5.56318 9.6131 5.70004 9.36266 5.80737L9.32015 5.82559L8.90063 6.00538L9.08043 5.04649L9.22282 4.98954Z" fill="#D5D7E7"/>
<path d="M7.87535 4.38721L7.95629 4.50862C8.06063 4.66513 8.20086 4.79445 8.36529 4.8858V4.8858C8.55442 4.99087 8.76877 5.04196 8.98496 5.03348L9.13388 5.02764L9.1345 5.1039C9.13829 5.56838 8.96954 6.01774 8.66094 6.36491V6.36491L8.11507 6.90428V6.90428C7.63829 6.82482 7.15233 6.8169 6.67321 6.88078L6.49695 6.90428L6.61681 6.42484L6.7966 5.9454L6.82046 5.88973C7.06419 5.32121 7.42341 4.80955 7.87535 4.38721V4.38721Z" fill="#D5D7E7"/>
<circle cx="8.78082" cy="4.02801" r="0.599303" fill="#D5D7E7"/>
</svg>
