<svg width="140" height="140" viewBox="0 0 140 140" fill="none" xmlns="http://www.w3.org/2000/svg">
<path d="M69.8048 106.561L68.2316 109.707L66.6585 112.854H42.0122L38.8658 109.707L42.0122 106.561H69.8048Z" fill="#FFFDD0"/>
<path d="M68.756 112.854L70.3292 109.707L71.9023 106.561H96.5486L99.6949 109.707L96.5486 112.854H68.756Z" fill="#800020"/>
<path d="M42.5366 106.561H96.0244" stroke="#3C2E4F" stroke-width="2" stroke-linecap="round"/>
<path d="M42.5366 112.854H96.0244" stroke="#3C2E4F" stroke-width="2" stroke-linecap="round"/>
<path d="M92.8781 116L99.1707 109.707" stroke="#3C2E4F" stroke-width="2" stroke-linecap="round"/>
<path d="M92.8781 103.415L99.1707 109.707" stroke="#3C2E4F" stroke-width="2" stroke-linecap="round"/>
<path d="M45.683 116L39.3903 109.707" stroke="#3C2E4F" stroke-width="2" stroke-linecap="round"/>
<path d="M45.683 103.415L39.3903 109.707" stroke="#3C2E4F" stroke-width="2" stroke-linecap="round"/>
<circle cx="97.0731" cy="62.5121" r="12.1341" stroke="#3C2E4F" stroke-width="3"/>
<path d="M97.0731 52.0244V75.0976" stroke="#3C2E4F" stroke-width="2" stroke-linecap="round"/>
<path d="M85.5366 63.561H108.61" stroke="#3C2E4F" stroke-width="2" stroke-linecap="round"/>
<path d="M97.0731 58.3169L102.317 63.5608L97.0731 68.8047L91.8292 63.5608L97.0731 58.3169Z" fill="#3C2E4F"/>
<path d="M97.0731 48.8779L102.317 52.5487L97.0731 56.2194L91.8292 52.5487L97.0731 48.8779Z" fill="#3C2E4F"/>
<path d="M83.439 63.5608L86.5853 58.3169L89.7316 63.5608L86.5853 68.8047L83.439 63.5608Z" fill="#3C2E4F"/>
<path d="M104.415 63.5608L107.561 58.3169L110.707 63.5608L107.561 68.8047L104.415 63.5608Z" fill="#3C2E4F"/>
<path d="M97.0731 69.8535L102.317 71.9511L97.0731 74.0486L91.8292 71.9511L97.0731 69.8535Z" fill="#3C2E4F"/>
<path d="M77.0199 72.2314C77.2429 72.0455 77.4918 71.893 77.7587 71.7786L78.4411 71.4862C79.8931 70.8638 81.5786 71.4813 82.2851 72.8943V72.8943C82.4923 73.3086 82.6001 73.7654 82.6001 74.2286V75.7781C82.6001 76.3234 82.4515 76.8584 82.1702 77.3256L80.24 80.5313C80.0667 80.8191 79.8462 81.0758 79.5879 81.2906L73.1611 86.634L69.2673 90.0952C68.7534 90.552 68.5102 91.2407 68.6232 91.9188L68.9252 93.7306C68.9523 93.8936 68.966 94.0585 68.966 94.2238V98.9027C68.966 99.7936 67.8888 100.24 67.2589 99.6098L66.5541 98.9051C66.4144 98.7654 66.2888 98.6122 66.1792 98.4478L65.2952 97.1218L62.6733 91.8779L61.935 90.0322C61.7553 89.5829 61.9231 89.0694 62.3335 88.8129L65.3453 86.9305C65.6588 86.7345 65.9334 86.4823 66.1553 86.1865L68.966 82.4389L71.5879 78.7682L73.9554 74.9803C74.124 74.7105 74.3344 74.4693 74.5788 74.2656L77.0199 72.2314Z" fill="#3C2E4F"/>
<path d="M55.1002 82.1043C55.3733 82.0059 55.6594 81.9477 55.9493 81.9315L56.6905 81.8901C58.2679 81.8019 59.6405 82.9586 59.8212 84.528V84.528C59.8741 84.9882 59.8192 85.4544 59.6608 85.8896L59.1308 87.3457C58.9443 87.8581 58.6217 88.31 58.1976 88.6528L55.2874 91.005C55.026 91.2162 54.7311 91.382 54.4149 91.4955L46.5481 94.3186L41.0386 96.5036C40.8007 96.598 40.5831 96.7372 40.3976 96.9136L39.3847 97.877C39.1797 98.0719 39.0034 98.2948 38.8608 98.5392L35.7867 103.809C35.5937 104.14 35.1401 104.199 34.8693 103.928V103.928C34.5408 103.599 34.3562 103.154 34.3562 102.689L34.3562 99.7825L34.8993 95.6592L35.4424 91.3213C35.5122 90.764 36.0271 90.3734 36.5826 90.4565L38.2995 90.7133C38.8084 90.7894 39.3284 90.7333 39.8094 90.5504L43.7053 89.0692C43.9282 88.9844 44.1402 88.8734 44.3367 88.7385L47.7601 86.389L51.2803 83.6393C51.531 83.4434 51.8113 83.2887 52.1106 83.1809L55.1002 82.1043Z" fill="#3C2E4F"/>
<path d="M60.3414 74.9151C60.4973 75.0364 60.6649 75.142 60.8416 75.2303L66.8685 78.2438L65.1142 79.6473C64.5376 80.1086 64.0138 80.6324 63.5525 81.209L62.149 82.9633L61.836 82.6503C59.7137 80.5281 56.7418 79.4856 53.7588 79.817V79.817L54.1769 79.1899C55.272 77.5472 55.8564 75.6172 55.8564 73.6429V71.4268L60.3414 74.9151Z" fill="#3C2E4F"/>
<path d="M65.2218 60.6186C65.9446 60.4872 66.6906 60.6256 67.3183 61.0076L78.4049 67.756L74.4175 70.2935C73.2432 71.0408 72.2378 72.025 71.4657 73.1831L69.4903 76.1463L60.6406 71.7214C60.2524 71.5273 59.9108 71.2512 59.6397 70.9122L58.1523 69.053C58.0203 68.888 57.9061 68.7095 57.8116 68.5205L56.5962 66.0898C55.7018 64.301 56.7751 62.1543 58.7429 61.7966L65.2218 60.6186Z" fill="#3C2E4F"/>
<path d="M59.6631 38.3079C60.6158 38.0148 61.6071 37.8657 62.6039 37.8657H65.354C66.0125 37.8657 66.6694 37.9308 67.3151 38.0599L68.9661 38.3901L63.7222 45.2072L63.4274 45.0893C61.8996 44.4781 60.2446 44.2535 58.6092 44.4352L57.2817 44.5827C56.6823 44.6493 56.0902 44.77 55.5125 44.9433L51.1368 46.256L48.5528 47.4305C48.353 47.5213 48.1602 47.6268 47.9759 47.746L44.4555 50.024C44.1034 50.2518 43.6313 50.123 43.4438 49.7478V49.7478C43.3362 49.5326 43.346 49.2774 43.4698 49.071L44.4852 47.3786C44.723 46.9824 45.023 46.627 45.3739 46.3263L47.9753 44.0965C48.3346 43.7886 48.7153 43.5065 49.1145 43.2525L53.1449 40.6877C53.9003 40.2069 54.7169 39.8298 55.5728 39.5665L59.6631 38.3079Z" fill="#3C2E4F"/>
<path d="M83.8307 42.4079C84.4074 42.1772 84.9614 41.8933 85.4855 41.5598L90.0029 38.6851C90.2913 38.5015 90.466 38.1833 90.466 37.8414V35.5317C90.466 35.3406 90.4425 35.1503 90.3962 34.9649L90.2029 34.1917C90.0502 33.581 90.3422 32.9461 90.9053 32.6646V32.6646C90.9612 32.6366 91.0229 32.6221 91.0855 32.6221H91.1742C92.0422 32.6221 92.8527 33.0559 93.3342 33.7781L93.4415 33.939C93.5551 34.1094 93.6506 34.2911 93.7267 34.4812L94.1619 35.5692C94.4917 36.3936 94.6611 37.2734 94.6611 38.1614V38.1614C94.6611 39.6716 94.1713 41.141 93.2652 42.3492L92.3719 43.5402C91.8034 44.2982 91.13 44.9716 90.3719 45.5402L86.1811 48.6833C85.544 49.1611 84.8522 49.5611 84.1203 49.8748L81.5513 50.9757L77.8806 52.5489L79.4538 44.1587L83.8307 42.4079Z" fill="#3C2E4F"/>
<path d="M68.9091 38.3901L69.6619 39.5193C70.5456 40.8449 71.7333 41.9401 73.126 42.7139L73.2773 42.7979C74.879 43.6878 76.6945 44.1205 78.5255 44.0487L79.9213 43.9939L79.9469 47.1269C79.967 49.6041 79.0671 52.0006 77.4213 53.8521L75.7831 55.695L71.0067 60.4145L66.1932 59.6123C65.2125 59.4488 64.213 59.4325 63.2276 59.5639L56.8481 60.4145L57.8969 56.2194L59.4701 52.0243L62.0848 45.9252C62.6308 44.6516 63.4355 43.5054 64.448 42.5592L68.9091 38.3901Z" fill="#3C2E4F"/>
<circle cx="76.8318" cy="35.2439" r="5.2439" fill="#3C2E4F"/>
</svg>
