<svg width="140" height="140" viewBox="0 0 140 140" fill="none" xmlns="http://www.w3.org/2000/svg">
<mask id="path-1-inside-1_185_568" fill="white">
<path fill-rule="evenodd" clip-rule="evenodd" d="M89.9973 66.7377L115.835 45.6736C113.969 45.1002 111.987 44.7915 109.933 44.7915C98.85 44.7915 89.8656 53.7759 89.8656 64.8587C89.8656 73.5278 95.3627 80.9129 103.061 83.7185L103.321 73.4305L94.6845 67.1722L129.758 61.7359C128.768 55.3962 124.809 50.04 119.349 47.1332L119.154 54.8227L127.562 60.9145L89.9973 66.7377ZM129.976 63.8777L104.93 84.2973C106.529 84.7077 108.206 84.9259 109.933 84.9259C121.016 84.9259 130 75.9415 130 64.8587C130 64.5298 129.992 64.2027 129.976 63.8777Z"/>
</mask>
<path fill-rule="evenodd" clip-rule="evenodd" d="M89.9973 66.7377L115.835 45.6736C113.969 45.1002 111.987 44.7915 109.933 44.7915C98.85 44.7915 89.8656 53.7759 89.8656 64.8587C89.8656 73.5278 95.3627 80.9129 103.061 83.7185L103.321 73.4305L94.6845 67.1722L129.758 61.7359C128.768 55.3962 124.809 50.04 119.349 47.1332L119.154 54.8227L127.562 60.9145L89.9973 66.7377ZM129.976 63.8777L104.93 84.2973C106.529 84.7077 108.206 84.9259 109.933 84.9259C121.016 84.9259 130 75.9415 130 64.8587C130 64.5298 129.992 64.2027 129.976 63.8777Z" fill="white"/>
<path d="M115.835 45.6736L117.731 47.9989L122.079 44.4539L116.717 42.806L115.835 45.6736ZM89.9973 66.7377L88.1017 64.4125L79.5364 71.3952L90.4568 69.7023L89.9973 66.7377ZM103.061 83.7185L102.034 86.5372L105.955 87.9661L106.06 83.7943L103.061 83.7185ZM103.321 73.4305L106.32 73.5062L106.36 71.9277L105.081 71.0012L103.321 73.4305ZM94.6845 67.1722L94.225 64.2076L87.0212 65.3242L92.9242 69.6015L94.6845 67.1722ZM129.758 61.7359L130.218 64.7005L133.186 64.2405L132.722 61.2728L129.758 61.7359ZM119.349 47.1332L120.758 44.4851L116.472 42.2036L116.35 47.0574L119.349 47.1332ZM119.154 54.8227L116.155 54.7469L116.115 56.3256L117.394 57.2521L119.154 54.8227ZM127.562 60.9145L128.021 63.8791L135.225 62.7623L129.322 58.4851L127.562 60.9145ZM129.976 63.8777L132.973 63.7335L132.687 57.797L128.081 61.5525L129.976 63.8777ZM104.93 84.2973L103.034 81.9721L98.4295 85.7264L104.184 87.2032L104.93 84.2973ZM113.94 43.3484L88.1017 64.4125L91.8929 69.063L117.731 47.9989L113.94 43.3484ZM109.933 47.7915C111.685 47.7915 113.37 48.0546 114.954 48.5413L116.717 42.806C114.568 42.1458 112.289 41.7915 109.933 41.7915V47.7915ZM92.8656 64.8587C92.8656 55.4327 100.507 47.7915 109.933 47.7915V41.7915C97.1931 41.7915 86.8656 52.119 86.8656 64.8587H92.8656ZM104.089 80.8999C97.5364 78.5121 92.8656 72.227 92.8656 64.8587H86.8656C86.8656 74.8285 93.1889 83.3137 102.034 86.5372L104.089 80.8999ZM106.06 83.7943L106.32 73.5062L100.322 73.3547L100.062 83.6428L106.06 83.7943ZM105.081 71.0012L96.4447 64.743L92.9242 69.6015L101.561 75.8598L105.081 71.0012ZM95.144 70.1368L130.218 64.7005L129.299 58.7713L94.225 64.2076L95.144 70.1368ZM117.939 49.7814C122.589 52.2567 125.953 56.8164 126.794 62.199L132.722 61.2728C131.582 53.9761 127.03 47.8233 120.758 44.4851L117.939 49.7814ZM122.153 54.8986L122.348 47.2091L116.35 47.0574L116.155 54.7469L122.153 54.8986ZM129.322 58.4851L120.914 52.3934L117.394 57.2521L125.802 63.3438L129.322 58.4851ZM90.4568 69.7023L128.021 63.8791L127.102 57.9499L89.5377 63.7732L90.4568 69.7023ZM128.081 61.5525L103.034 81.9721L106.826 86.6225L131.872 66.2029L128.081 61.5525ZM109.933 81.9259C108.459 81.9259 107.033 81.7398 105.676 81.3915L104.184 87.2032C106.025 87.6755 107.952 87.9259 109.933 87.9259V81.9259ZM127 64.8587C127 74.2846 119.359 81.9259 109.933 81.9259V87.9259C122.672 87.9259 133 77.5983 133 64.8587H127ZM126.98 64.0219C126.993 64.299 127 64.5779 127 64.8587H133C133 64.4816 132.991 64.1065 132.973 63.7335L126.98 64.0219Z" fill="white" mask="url(#path-1-inside-1_185_568)"/>
<path d="M81.5411 75.3726C81.7642 75.1868 82.013 75.0342 82.2799 74.9199L84.0981 74.1407C85.5581 73.5149 87.2528 74.1357 87.9631 75.5564L88.4473 76.5249C88.6556 76.9414 88.7641 77.4008 88.7641 77.8665V80.3793C88.7641 80.9246 88.6154 81.4596 88.3341 81.9267L85.5826 86.4965C85.4093 86.7844 85.1888 87.041 84.9305 87.2559L76.3682 94.3747L70.996 99.1501C70.4821 99.6068 70.2389 100.296 70.3519 100.974L70.8182 103.771C70.8453 103.934 70.859 104.099 70.859 104.264V111.243C70.859 112.134 69.7818 112.58 69.1519 111.95L67.6257 110.424C67.486 110.284 67.3605 110.131 67.2509 109.967L66.0384 108.148L62.5951 101.261L61.5283 98.5943C61.3485 98.145 61.5164 97.6314 61.9268 97.3749L66.2527 94.6712C66.5662 94.4753 66.8408 94.223 67.0627 93.9272L70.859 88.8655L74.3023 84.0449L77.491 78.9429C77.6596 78.6731 77.8701 78.4318 78.1145 78.2282L81.5411 75.3726Z" fill="white"/>
<path d="M52.7787 88.3795C53.0519 88.2811 53.3379 88.2229 53.6278 88.2067L55.6028 88.0964C57.1888 88.0077 58.5689 89.1707 58.7505 90.7487L58.8743 91.8243C58.9276 92.287 58.8724 92.7557 58.7131 93.1934L57.8537 95.5546C57.6672 96.067 57.3445 96.5189 56.9204 96.8617L52.7718 100.215C52.5105 100.426 52.2156 100.592 51.8993 100.705L41.4187 104.466L34.0705 107.381C33.8325 107.475 33.6149 107.614 33.4295 107.791L31.9145 109.232C31.7095 109.427 31.5331 109.649 31.3906 109.894L27.2861 116.93C27.0328 117.364 26.437 117.441 26.0814 117.086V117.086C25.65 116.654 25.4076 116.069 25.4076 115.459L25.4076 111.642L26.1208 106.227L26.874 100.212C26.9437 99.6546 27.4587 99.264 28.0141 99.3471L30.8293 99.7682C31.3382 99.8443 31.8582 99.7882 32.3392 99.6053L37.7904 97.5327C38.0133 97.448 38.2253 97.337 38.4219 97.202L43.0103 94.0529L47.7518 90.3492C48.0025 90.1534 48.2827 89.9987 48.582 89.8909L52.7787 88.3795Z" fill="white"/>
<path d="M59.6061 79.042C59.7621 79.1633 59.9296 79.2689 60.1063 79.3573L68.1045 83.3564L65.5288 85.4169C64.9522 85.8782 64.4284 86.402 63.9671 86.9786L61.9066 89.5543L60.4845 88.1322C58.3364 85.9841 55.3284 84.929 52.3091 85.2644L50.8881 85.4223L51.9632 83.8096C53.0583 82.1669 53.6427 80.2369 53.6427 78.2626V74.4038L59.6061 79.042Z" fill="white"/>
<path d="M66.2934 60.1459C67.0163 60.0145 67.7623 60.1529 68.3899 60.5349L83.2547 69.5831L77.4603 73.2704C76.286 74.0177 75.2807 75.0019 74.5086 76.16L71.5475 80.6016L59.7411 74.6984C59.3528 74.5042 59.0113 74.2281 58.7401 73.8892L56.5956 71.2086C56.4636 71.0436 56.3494 70.8651 56.2549 70.6761L54.054 66.2742C53.1596 64.4854 54.2329 62.3388 56.2006 61.981L66.2934 60.1459Z" fill="white"/>
<path d="M59.092 30.7718C60.0448 30.4786 61.036 30.3296 62.0329 30.3296H66.4256C67.0841 30.3296 67.741 30.3946 68.3867 30.5238L70.8591 31.0182L63.9725 39.9708L62.8564 39.5243C61.3286 38.9132 59.6736 38.6885 58.0381 38.8703L55.2322 39.182C54.6328 39.2486 54.0407 39.3693 53.4631 39.5426L47.4447 41.3481L44.0513 42.8906C43.7889 43.0099 43.5356 43.1484 43.2936 43.3049L38.6704 46.2964C38.208 46.5957 37.5881 46.4265 37.3418 45.9338V45.9338C37.2004 45.6512 37.2133 45.316 37.3759 45.045L38.7095 42.8224C39.0217 42.302 39.4157 41.8354 39.8765 41.4405L43.4619 38.3673C43.8211 38.0594 44.2018 37.7773 44.601 37.5233L50.4384 33.8086C51.1938 33.3279 52.0104 32.9508 52.8663 32.6874L59.092 30.7718Z" fill="white"/>
<path d="M90.6517 36.186C91.2284 35.9553 91.7825 35.6713 92.3065 35.3378L98.6308 31.3133C98.9193 31.1297 99.0939 30.8115 99.0939 30.4696V27.2644C99.0939 27.0135 99.0632 26.7636 99.0023 26.5201L98.7485 25.5047C98.5479 24.7027 98.9314 23.869 99.6709 23.4992V23.4992C99.7443 23.4625 99.8254 23.4434 99.9075 23.4434H100.024C101.164 23.4434 102.228 24.013 102.861 24.9615L103.002 25.1729C103.151 25.3966 103.276 25.6352 103.376 25.8848L103.948 27.3136C104.381 28.3963 104.603 29.5517 104.603 30.7178V30.7178C104.603 32.7011 103.96 34.6309 102.77 36.2175L101.328 38.1396C100.76 38.8977 100.086 39.5711 99.3284 40.1396L93.1664 44.7611C92.5293 45.2389 91.8375 45.6389 91.1055 45.9526L87.3868 47.5464L82.5662 49.6123L84.6321 38.5938L90.6517 36.186Z" fill="white"/>
<path d="M70.7843 31.0186L72.1941 33.1333C73.0779 34.4589 74.2655 35.5542 75.6582 36.3279L77.2879 37.2333C78.8897 38.1231 80.7052 38.5558 82.5362 38.484L85.2461 38.3777L85.2895 43.6977C85.3097 46.1749 84.4097 48.5714 82.7639 50.4229L79.8116 53.7442L73.5389 59.9422L66.7542 58.8114C65.7736 58.6479 64.7741 58.6316 63.7886 58.763L54.9452 59.9422L56.3225 54.4329L58.3885 48.9236L62.0815 40.3091C62.6275 39.0354 63.4323 37.8892 64.4447 36.943L70.7843 31.0186Z" fill="white"/>
<circle cx="81.1887" cy="26.8866" r="6.88657" fill="white"/>
</svg>
