<svg width="140" height="140" viewBox="0 0 140 140" fill="none" xmlns="http://www.w3.org/2000/svg">
<mask id="path-1-inside-1_216_562" fill="white">
<path fill-rule="evenodd" clip-rule="evenodd" d="M89.9973 66.7377L115.835 45.6736C113.969 45.1002 111.987 44.7915 109.933 44.7915C98.85 44.7915 89.8656 53.7759 89.8656 64.8587C89.8656 73.5278 95.3627 80.9129 103.061 83.7185L103.321 73.4305L94.6845 67.1722L129.758 61.7359C128.768 55.3962 124.809 50.04 119.349 47.1332L119.154 54.8227L127.562 60.9145L89.9973 66.7377ZM129.976 63.8777L104.93 84.2973C106.529 84.7077 108.206 84.9259 109.933 84.9259C121.016 84.9259 130 75.9415 130 64.8587C130 64.5298 129.992 64.2027 129.976 63.8777Z"/>
</mask>
<path fill-rule="evenodd" clip-rule="evenodd" d="M89.9973 66.7377L115.835 45.6736C113.969 45.1002 111.987 44.7915 109.933 44.7915C98.85 44.7915 89.8656 53.7759 89.8656 64.8587C89.8656 73.5278 95.3627 80.9129 103.061 83.7185L103.321 73.4305L94.6845 67.1722L129.758 61.7359C128.768 55.3962 124.809 50.04 119.349 47.1332L119.154 54.8227L127.562 60.9145L89.9973 66.7377ZM129.976 63.8777L104.93 84.2973C106.529 84.7077 108.206 84.9259 109.933 84.9259C121.016 84.9259 130 75.9415 130 64.8587C130 64.5298 129.992 64.2027 129.976 63.8777Z" fill="black"/>
<path d="M115.835 45.6736L117.731 47.9989L122.079 44.4539L116.717 42.806L115.835 45.6736ZM89.9973 66.7377L88.1017 64.4125L79.5364 71.3952L90.4569 69.7023L89.9973 66.7377ZM103.061 83.7185L102.034 86.5372L105.955 87.9661L106.06 83.7943L103.061 83.7185ZM103.321 73.4305L106.32 73.5062L106.36 71.9277L105.081 71.0012L103.321 73.4305ZM94.6845 67.1722L94.225 64.2076L87.0213 65.3242L92.9242 69.6015L94.6845 67.1722ZM129.758 61.7359L130.218 64.7005L133.186 64.2405L132.723 61.2728L129.758 61.7359ZM119.349 47.1332L120.758 44.4851L116.473 42.2036L116.35 47.0574L119.349 47.1332ZM119.154 54.8227L116.155 54.7469L116.115 56.3256L117.394 57.2521L119.154 54.8227ZM127.562 60.9145L128.021 63.8791L135.225 62.7623L129.322 58.4851L127.562 60.9145ZM129.976 63.8777L132.973 63.7335L132.687 57.797L128.081 61.5525L129.976 63.8777ZM104.93 84.2973L103.035 81.9721L98.4296 85.7264L104.185 87.2032L104.93 84.2973ZM113.94 43.3484L88.1017 64.4125L91.8929 69.063L117.731 47.9989L113.94 43.3484ZM109.933 47.7915C111.685 47.7915 113.37 48.0546 114.954 48.5413L116.717 42.806C114.568 42.1458 112.289 41.7915 109.933 41.7915V47.7915ZM92.8656 64.8587C92.8656 55.4327 100.507 47.7915 109.933 47.7915V41.7915C97.1932 41.7915 86.8656 52.119 86.8656 64.8587H92.8656ZM104.089 80.8999C97.5365 78.5121 92.8656 72.227 92.8656 64.8587H86.8656C86.8656 74.8285 93.189 83.3137 102.034 86.5372L104.089 80.8999ZM106.06 83.7943L106.32 73.5062L100.322 73.3547L100.062 83.6428L106.06 83.7943ZM105.081 71.0012L96.4448 64.743L92.9242 69.6015L101.561 75.8598L105.081 71.0012ZM95.144 70.1368L130.218 64.7005L129.299 58.7713L94.225 64.2076L95.144 70.1368ZM117.939 49.7814C122.589 52.2567 125.953 56.8164 126.794 62.199L132.723 61.2728C131.582 53.9761 127.03 47.8233 120.758 44.4851L117.939 49.7814ZM122.153 54.8986L122.348 47.2091L116.35 47.0574L116.155 54.7469L122.153 54.8986ZM129.322 58.4851L120.914 52.3934L117.394 57.2521L125.802 63.3438L129.322 58.4851ZM90.4569 69.7023L128.021 63.8791L127.102 57.9499L89.5377 63.7732L90.4569 69.7023ZM128.081 61.5525L103.035 81.9721L106.826 86.6225L131.872 66.2029L128.081 61.5525ZM109.933 81.9259C108.459 81.9259 107.033 81.7398 105.676 81.3915L104.185 87.2032C106.025 87.6755 107.952 87.9259 109.933 87.9259V81.9259ZM127 64.8587C127 74.2846 119.359 81.9259 109.933 81.9259V87.9259C122.672 87.9259 133 77.5983 133 64.8587H127ZM126.98 64.0219C126.993 64.299 127 64.5779 127 64.8587H133C133 64.4816 132.991 64.1065 132.973 63.7335L126.98 64.0219Z" fill="black" mask="url(#path-1-inside-1_216_562)"/>
<path d="M81.5411 75.3727C81.7642 75.1868 82.013 75.0343 82.2799 74.9199L84.0981 74.1407C85.5581 73.515 87.2527 74.1358 87.9631 75.5565L88.4473 76.5249C88.6556 76.9415 88.764 77.4008 88.764 77.8666V80.3793C88.764 80.9246 88.6154 81.4596 88.3341 81.9268L85.5826 86.4966C85.4092 86.7844 85.1888 87.0411 84.9304 87.2559L76.3682 94.3748L70.996 99.1501C70.4821 99.6069 70.2389 100.296 70.3519 100.974L70.8181 103.771C70.8453 103.934 70.8589 104.099 70.8589 104.264V111.243C70.8589 112.134 69.7818 112.58 69.1518 111.95L67.6257 110.424C67.486 110.284 67.3605 110.131 67.2509 109.967L66.0383 108.148L62.5951 101.261L61.5283 98.5944C61.3485 98.145 61.5163 97.6315 61.9267 97.375L66.2526 94.6713C66.5662 94.4753 66.8408 94.2231 67.0626 93.9273L70.8589 88.8655L74.3022 84.0449L77.491 78.9429C77.6596 78.6731 77.87 78.4319 78.1144 78.2283L81.5411 75.3727Z" fill="black"/>
<path d="M52.7787 88.3797C53.0518 88.2813 53.3379 88.2231 53.6278 88.2069L55.6028 88.0965C57.1887 88.0079 58.5689 89.1708 58.7505 90.7488L58.8743 91.8245C58.9275 92.2871 58.8723 92.7559 58.713 93.1935L57.8536 95.5547C57.6671 96.0672 57.3445 96.5191 56.9204 96.8618L52.7718 100.215C52.5105 100.426 52.2156 100.592 51.8993 100.705L41.4186 104.467L34.0704 107.381C33.8325 107.475 33.6149 107.614 33.4294 107.791L31.9144 109.232C31.7095 109.427 31.5331 109.65 31.3906 109.894L27.2861 116.93C27.0327 117.364 26.437 117.442 26.0814 117.086V117.086C25.65 116.655 25.4076 116.069 25.4076 115.459L25.4076 111.642L26.1208 106.227L26.8739 100.212C26.9437 99.6547 27.4586 99.2642 28.0141 99.3472L30.8292 99.7683C31.3382 99.8444 31.8582 99.7883 32.3392 99.6055L37.7904 97.5328C38.0133 97.4481 38.2252 97.3371 38.4218 97.2022L43.0103 94.0531L47.7517 90.3493C48.0024 90.1535 48.2827 89.9988 48.582 89.891L52.7787 88.3797Z" fill="black"/>
<path d="M59.6061 79.042C59.7621 79.1633 59.9296 79.2689 60.1063 79.3573L68.1045 83.3564L65.5288 85.4169C64.9522 85.8782 64.4284 86.402 63.9671 86.9786L61.9066 89.5543L60.4845 88.1322C58.3364 85.9841 55.3284 84.929 52.3091 85.2644L50.8881 85.4223L51.9632 83.8096C53.0583 82.1669 53.6427 80.2369 53.6427 78.2626V74.4038L59.6061 79.042Z" fill="black"/>
<path d="M66.2934 60.1461C67.0163 60.0146 67.7622 60.153 68.3899 60.5351L83.2547 69.5832L77.4603 73.2705C76.286 74.0178 75.2806 75.002 74.5086 76.1602L71.5475 80.6017L59.741 74.6985C59.3528 74.5044 59.0112 74.2283 58.7401 73.8893L56.5956 71.2087C56.4636 71.0437 56.3494 70.8652 56.2549 70.6763L54.054 66.2744C53.1595 64.4855 54.2328 62.3389 56.2006 61.9811L66.2934 60.1461Z" fill="black"/>
<path d="M59.0921 30.7719C60.0449 30.4787 61.0361 30.3297 62.0329 30.3297H66.4256C67.0842 30.3297 67.7411 30.3947 68.3868 30.5239L70.8591 31.0183L63.9726 39.9709L62.8564 39.5244C61.3286 38.9133 59.6736 38.6886 58.0382 38.8704L55.2323 39.1821C54.6329 39.2487 54.0408 39.3694 53.4631 39.5427L47.4448 41.3482L44.0513 42.8907C43.7889 43.01 43.5357 43.1485 43.2937 43.305L38.6705 46.2965C38.208 46.5957 37.5881 46.4266 37.3418 45.9339V45.9339C37.2005 45.6513 37.2134 45.3161 37.3759 45.0451L38.7095 42.8225C39.0217 42.3021 39.4158 41.8355 39.8765 41.4406L43.4619 38.3674C43.8212 38.0595 44.2019 37.7774 44.6011 37.5234L50.4384 33.8087C51.1939 33.3279 52.0105 32.9509 52.8663 32.6875L59.0921 30.7719Z" fill="black"/>
<path d="M90.6516 36.1861C91.2284 35.9554 91.7824 35.6714 92.3065 35.3379L98.6307 31.3134C98.9192 31.1298 99.0939 30.8116 99.0939 30.4697V27.2645C99.0939 27.0136 99.0631 26.7637 99.0022 26.5202L98.7484 25.5048C98.5479 24.7028 98.9313 23.869 99.6708 23.4993V23.4993C99.7443 23.4626 99.8253 23.4435 99.9074 23.4435H100.024C101.164 23.4435 102.228 24.0131 102.861 24.9616L103.001 25.1729C103.151 25.3967 103.276 25.6353 103.376 25.8849L103.948 27.3137C104.381 28.3964 104.603 29.5518 104.603 30.7179V30.7179C104.603 32.7012 103.96 34.631 102.77 36.2176L101.328 38.1397C100.76 38.8978 100.086 39.5712 99.3283 40.1397L93.1663 44.7612C92.5292 45.239 91.8374 45.639 91.1055 45.9527L87.3867 47.5464L82.5661 49.6124L84.6321 38.5939L90.6516 36.1861Z" fill="black"/>
<path d="M70.7843 31.0184L72.1941 33.1331C73.0778 34.4587 74.2655 35.554 75.6582 36.3277L77.2879 37.2331C78.8897 38.123 80.7052 38.5556 82.5361 38.4838L85.2461 38.3776L85.2894 43.6976C85.3096 46.1747 84.4096 48.5712 82.7639 50.4227L79.8115 53.7441L73.5389 59.942L66.7542 58.8112C65.7736 58.6477 64.774 58.6315 63.7886 58.7628L54.9452 59.942L56.3225 54.4327L58.3884 48.9235L62.0815 40.3089C62.6275 39.0352 63.4323 37.889 64.4447 36.9428L70.7843 31.0184Z" fill="black"/>
<circle cx="81.1888" cy="26.8866" r="6.88657" fill="black"/>
</svg>
